<svg viewBox="0 0 22 16" version="1.1" xmlns="http://www.w3.org/2000/svg" xmlns:xlink="http://www.w3.org/1999/xlink">
    <g id="Page-1" stroke="none" stroke-width="1" fill="none" fill-rule="evenodd">
        <g id="Artboard" transform="translate(-304.000000, -635.000000)" fill="#000000" fill-rule="nonzero">
            <g id="Group-3" transform="translate(304.000000, 634.000000)">
                <g id="radio" transform="translate(0.000000, 1.000000)">
                    <path d="M15.94,2.9 L14.54,4.36 C15.44,5.3 16,6.58 16,8 C16,9.42 15.42,10.7 14.52,11.64 L15.92,13.09 C17.22,11.74 18,9.94 18,8 C18,6.06 17.2,4.2 15.94,2.9 Z M22,8 C22,4.88 20.77,2.05 18.77,0 L17.37,1.45 C18.97,3.13 20,5.45 20,8 C20,10.55 19,12.9 17.36,14.55 L18.76,16 C20.76,13.96 22,11.13 22,8 Z M6.06,13.1 L7.46,11.64 C6.56,10.7 6,9.42 6,8 C6,6.58 6.6,5.3 7.5,4.36 L6.08,2.9 C4.78,4.2 4,6 4,8 C4,10 4.8,11.8 6.06,13.1 Z M0,8 C0,11.12 1.23,13.95 3.23,16 L4.63,14.55 C3.03,12.87 2,10.55 2,8 C2,5.45 3,3.1 4.64,1.45 L3.24,0 C1.24,2.04 0,4.87 0,8 Z M9,4.68 L9,11.31 L14,8.01 L9,4.71 L9,4.68 Z" id="Shape"></path>
                </g>
            </g>
        </g>
    </g>
</svg>