
<svg width="22px" height="20px" viewBox="0 0 22 20" version="1.1" xmlns="http://www.w3.org/2000/svg" xmlns:xlink="http://www.w3.org/1999/xlink">
    <g id="Page-1" stroke="none" stroke-width="1" fill="none" fill-rule="evenodd" opacity="0.703782">
        <g id="Artboard" transform="translate(-1582.000000, -820.000000)" fill="#FFFFFF" fill-rule="nonzero">
            <g id="Group-10" transform="translate(1544.000000, 820.000000)">
                <g id="Group-11">
                    <g id="thumb-up" transform="translate(38.000000, 0.000000)">
                        <path d="M8,20 L17,20 C17.8,20 18.5,19.5 18.8,18.8 L21.8,11.5 C21.9,11.3 22,11.1 22,10.8 L22,8.7 C22,7.6 21.1,6.6 20,6.6 L13.7,6.6 L14.7,1.9 L14.7,1.6 C14.7,1.2 14.5,0.8 14.3,0.5 C13.7,-0.1 12.8,-4.99600361e-16 12.2,0.6 L6.6,6.3 C6.2,6.7 6,7.2 6,7.7 L6,18 C6,19.1 6.9,20 8,20 Z M8.3,7.4 L11.8,3.8 C12,3.6 12.3,3.8 12.2,4 L11.2,8.7 L19,8.7 C19.6,8.7 20,9.2 20,9.7 L20,10.7 L17.3,17.4 C17.1,17.7 16.7,18 16.3,18 L9,18 C8.4,18 8,17.5 8,17 L8,8.2 C8,7.8 8.1,7.6 8.3,7.4 Z M4,20 L0,20 L0,8 L4,8 L4,20 Z" id="Shape"></path>
                    </g>
                </g>
            </g>
        </g>
    </g>
</svg>