
<svg width="22px" height="20px" viewBox="0 0 22 20" version="1.1" xmlns="http://www.w3.org/2000/svg" xmlns:xlink="http://www.w3.org/1999/xlink">
    <g id="Page-1" stroke="none" stroke-width="1" fill="none" fill-rule="evenodd" opacity="0.703782">
        <g id="Artboard" transform="translate(-1544.000000, -820.000000)" fill="#FFFFFF" fill-rule="nonzero">
            <g id="Group-10" transform="translate(1544.000000, 820.000000)">
                <g id="Group-11">
                    <g id="thumb-down">
                        <path d="M13.9,0 L5,0 C4.2,0 3.5,0.5 3.2,1.2 L0.2,8.5 C0.1,8.7 0,8.9 0,9.2 L0,11.2 C0,12.3 0.9,13.2 2,13.2 L8.3,13.2 L7.3,17.9 L7.3,18.2 C7.3,18.6 7.5,19 7.7,19.3 C8.3,20 9.2,20 9.8,19.4 L15.3,13.7 C15.7,13.3 15.9,12.8 15.9,12.3 L15.9,2 C15.9,0.9 15,0 13.9,0 Z M13.7,12.6 L10.2,16.2 C10,16.4 9.7,16.2 9.8,16 L10.8,11.4 L3,11.4 C2.4,11.4 2,10.9 2,10.4 L2,9.3 L4.7,2.7 C4.9,2.2 5.3,2 5.7,2 L13,2 C13.5,2 14,2.5 14,3 L14,11.8 C13.9,12.1 13.8,12.4 13.7,12.6 Z M18,0 L22,0 L22,12 L18,12 L18,0 Z" id="Shape"></path>
                    </g>
                </g>
            </g>
        </g>
    </g>
</svg>